<?xml version="1.0" encoding="utf-8"?>
<!-- Generator: Adobe Illustrator 23.0.2, SVG Export Plug-In . SVG Version: 6.00 Build 0)  -->
<svg version="1.1" id="Capa_1" xmlns="http://www.w3.org/2000/svg" xmlns:xlink="http://www.w3.org/1999/xlink" x="0px" y="0px"
	 viewBox="0 0 355.8 88.9" style="enable-background:new 0 0 355.8 88.9;" xml:space="preserve">
<style type="text/css">
	.st0{fill:#FFFFFF;}
	.st1{display:none;}
	.st2{display:inline;}
	.st3{fill-rule:evenodd;clip-rule:evenodd;fill:#FFFFFF;}
	.st4{display:inline;fill:#FFFFFF;}
</style>
<g>
	<g>
		<path class="st0" d="M21.9,15.9c2.1-3.5,5-5.2,9.1-5.2c6.2,0,10.4,4.7,10.4,11.3v19.7h-8V23.1c0-3.2-1.9-5.5-5.2-5.5
			c-3.5,0-6.1,2.8-6.1,6.9v17.1h-8V11.5h7.8L21.9,15.9z M202.2,15.9c2.1-3.5,5-5.2,9.1-5.2c6.2,0,10.4,4.7,10.4,11.3v19.7h-8V23.1
			c0-3.2-1.9-5.5-5.2-5.5c-3.5,0-6.1,2.8-6.1,6.9v17.1h-8V11.5h7.8L202.2,15.9z M61.3,26.6c0-8.9,6-15.9,15.2-15.9
			c9,0,14.3,6.4,14.3,15.9c0,0.8,0,1.4,0,2.2H69.2c0.6,4.6,2.8,7.5,7.3,7.5c2.6,0,4.9-1.4,6-3.7h7.7c-1.1,5.4-6,9.9-13.7,9.9
			C66.5,42.6,61.3,35.6,61.3,26.6z M69.3,23.3h13.5c-0.2-3.8-2.7-6.5-6.3-6.5C72.3,16.9,69.9,19.7,69.3,23.3L69.3,23.3z M153.5,16.7
			l0.2-0.4c1.8-3.4,3.9-5.2,7.4-5.2c0.6,0,1.3,0,1.9,0.2v7h-0.2c-5.2-0.5-9,2.2-9,8.6v14.7h-8V11.5h7.7L153.5,16.7z M182.2,38.5
			c-1.2,1.9-3.5,3.9-8.5,3.9c-6.2,0-10.6-3.1-10.6-9.1c0-6.6,5.2-8.9,12-9.9c5-0.7,7.1-1.1,7.1-3.4c0-2.2-1.5-3.6-4.8-3.6
			c-3.8,0-5.4,1.4-5.6,4.2h-7.1c0.2-5.3,4-9.9,12.8-9.9c9.1,0,12.7,4.1,12.7,11.1v15.3c0,2.3,0.4,3.9,1.1,4.5h-8
			C182.6,40.7,182.3,39.6,182.2,38.5L182.2,38.5z M182.3,31.1v-4.5c-1.4,0.8-3.4,1.3-5.4,1.8c-4.2,0.9-5.9,1.9-5.9,4.7
			c0,2.8,1.6,3.8,4.4,3.8C180,36.8,182.3,34,182.3,31.1L182.3,31.1z M1.5,3.4v38.3h8V3.4L1.5,3.4z M55.6,32.8V16.9h5.2v-5.4h-5.2
			V3.4h-7.9v8.1h-4.2v5.4h4.2v17.6c0,5.7,4.4,7.2,8.3,7.2c3.2,0,5-0.1,5-0.1v-5.9c0,0-1.4,0.1-2.4,0.1C56.8,35.8,55.6,35,55.6,32.8z
			 M130.1,10.7c-3.8,0-6.9,1.6-8.5,4.2V3.4h-8v38.3h7.7v-3.1c1.8,2.8,4.8,4,8.3,4c8.3,0,13.2-5.9,13.2-15.9S137.7,10.6,130.1,10.7z
			 M128.3,36c-4.7,0-6.9-3.7-6.9-9.2s1.9-9.6,6.9-9.6c4.5,0,6.4,3.9,6.4,9.5C134.7,32.4,132.4,36,128.3,36L128.3,36z M101.6,16.7
			l0.2-0.4c1.8-3.4,3.9-5.2,7.4-5.2c0.6,0,1.3,0,1.9,0.2v7h-0.2c-5.2-0.5-9,2.2-9,8.6v14.7h-8V11.5h7.7L101.6,16.7z M224.6,26.6
			c0,9.9,5,15.9,13.3,15.9c3.6,0,6.7-1.1,8.4-4v3.1h7.7V3.4h-8v11.5c-1.6-2.5-4.8-4.1-8.6-4.2C229.9,10.6,224.6,16.8,224.6,26.6
			L224.6,26.6z M232.7,26.6c0-5.6,2.1-9.5,6.5-9.5c5.1,0,7,4.1,7,9.6s-2.3,9.4-7,9.4C235.2,36.2,232.7,32.4,232.7,26.6L232.7,26.6z
			 M24.8,49.2v14.7H9.5V49.2h-8v38.3h8V70.9h15.3v16.6h8V49.2L24.8,49.2z M98.6,49.2v38.3h8V49.2L98.6,49.2z M121.5,78.6V62.7h5.2
			v-5.4h-5.2v-8.1h-7.9v8.1h-4.2v5.4h4.2v17.6c0,5.7,4.4,7.2,8.3,7.2c3.2,0,5-0.1,5-0.1v-5.9c0,0-1.4,0.1-2.4,0.1
			C122.8,81.6,121.5,80.8,121.5,78.6L121.5,78.6z M137.8,49.2H130v38.3h8V70.4c-0.1-3.7,2.7-6.7,6.4-6.8c0.1,0,0.2,0,0.3,0
			c3.3,0,5.2,2.2,5.2,5.4v18.5h8V67.9c0-6.6-4.2-11.3-10.4-11.3c-4.1,0-7.5,1.8-9.6,5.2L137.8,49.2z M35.8,72.3
			c0-8.9,6-15.9,15.2-15.9c9,0,14.3,6.4,14.3,15.9c0,0.8,0,1.4,0,2.2H43.7c0.6,4.6,2.8,7.5,7.3,7.5c2.6,0,4.9-1.4,6-3.7h7.7
			c-1.1,5.4-6,9.9-13.7,9.9C41,88.3,35.8,81.3,35.8,72.3z M43.8,69.1h13.5c-0.2-3.8-2.7-6.5-6.3-6.5C46.8,62.7,44.4,65.5,43.8,69.1
			L43.8,69.1z M86.6,84.2c-1.2,1.9-3.5,3.9-8.5,3.9c-6.2,0-10.6-3.1-10.6-9.1c0-6.6,5.2-8.9,12-9.9c5-0.7,7.1-1.1,7.1-3.4
			c0-2.2-1.5-3.6-4.8-3.6c-3.8,0-5.4,1.4-5.6,4.2H69c0.2-5.3,4-9.9,12.8-9.9c9.1,0,12.8,4.1,12.8,11.1V83c0,2.3,0.4,3.9,1.1,4.5h-8
			C87,86.5,86.7,85.4,86.6,84.2L86.6,84.2z M86.7,76.8v-4.5c-1.4,0.8-3.4,1.3-5.4,1.8c-4.2,0.9-5.9,1.9-5.9,4.7s1.6,3.8,4.4,3.8
			C84.4,82.6,86.7,79.8,86.7,76.8L86.7,76.8z"/>
	</g>
</g>
<g class="st1">
	<g class="st2">
		<polygon class="st3" points="31.2,43 31.2,2.4 25,2.4 25,19.7 7.6,19.7 7.6,2.4 1.4,2.4 1.4,43 7.6,43 7.6,25.3 25,25.3 25,43 		
			"/>
		<polygon class="st3" points="115.4,43 100.9,20.1 115.4,2.4 107.9,2.4 89.9,24.6 89.9,2.4 83.8,2.4 83.8,43 89.9,43 89.9,33 
			96.8,24.8 108.2,43 		"/>
		<polygon class="st3" points="155.4,43 155.4,2.4 149.2,2.4 137.6,27.7 125.7,2.4 119.6,2.4 119.6,43 125.7,43 125.7,15.9 
			135.3,35.6 139.9,35.6 149.2,15.9 149.2,43 		"/>
		<polygon class="st3" points="75.4,43 75.4,2.4 69.2,2.4 57.6,27.7 45.8,2.4 39.6,2.4 39.6,43 45.8,43 45.8,15.9 55.3,35.6 
			59.9,35.6 69.2,15.9 69.2,43 		"/>
	</g>
</g>
<g class="st1">
	<path class="st4" d="M183.7,34.5c-2.6,3.3-5.6,4.4-7.9,4.4c-1.3,0-2.6-0.3-3.7-0.9c-1.2-0.7-2.2-1.6-3-2.8
		c-0.9-1.4-1.5-2.8-1.9-4.4c-0.4-1.8-0.7-3.7-0.6-5.5c0-2.2,0.2-4.4,0.7-6.5c1.9-7.6,9.6-7.6,11.5-4.8c0.1,0.4-0.6,2.4-0.6,4
		c0,0.7,0.6,2.7,3.7,2.8c3,0.1,3.1-2.5,3.2-3.2c0.1-1-0.1-2-0.5-2.9c-0.4-1-1.1-1.8-2-2.5c-1-0.8-2.1-1.3-3.3-1.7
		c-1.5-0.4-3-0.6-4.6-0.6c-2.1,0-4.2,0.4-6.2,1.3c-1.8,0.8-3.4,2-4.7,3.5c-1.3,1.5-2.3,3.2-3,5.1c-0.7,1.9-1.1,4-1.1,6
		c0,2.2,0.3,4.4,0.9,6.5c0.5,1.9,1.5,3.6,2.7,5.1c1.2,1.5,2.8,2.6,4.6,3.4c2,0.8,4.2,1.3,6.4,1.2c2.6,0,5.2-0.8,7.3-2.3
		c1.5-1.1,2.9-2.4,4-3.9L183.7,34.5z"/>
	<path class="st4" d="M25.8,34.3c-2.6,3.4-5.7,4.5-8,4.5c-1.3,0-2.6-0.3-3.8-1c-1.2-0.7-2.3-1.7-3-2.8c-0.9-1.4-1.5-2.9-1.9-4.5
		c-0.5-1.8-0.7-3.7-0.7-5.6c0-2.2,0.2-4.4,0.7-6.6c1.9-7.8,9.8-7.8,11.7-4.9c0.1,0.4-0.7,2.5-0.6,4.1c0,0.7,0.7,2.8,3.8,2.9
		c3,0.1,3.2-2.5,3.3-3.3c0.1-1-0.1-2-0.5-2.9c-0.5-1-1.1-1.9-2-2.5c-1-0.8-2.1-1.4-3.3-1.7c-1.5-0.4-3.1-0.7-4.7-0.6
		c-2.2,0-4.4,0.4-6.4,1.3c-1.8,0.8-3.5,2.1-4.8,3.6c-1.3,1.5-2.3,3.3-3,5.2c-0.7,2-1.1,4-1.1,6.1c0,2.2,0.3,4.5,0.9,6.6
		c0.6,1.9,1.5,3.7,2.8,5.2C6.4,38.8,8,40,9.8,40.8c2.1,0.9,4.3,1.3,6.5,1.2c2.7,0,5.3-0.8,7.5-2.4c1.6-1.1,2.9-2.4,4.1-4L25.8,34.3z
		"/>
	<rect x="1.5" y="49.7" class="st4" width="62.9" height="12.6"/>
	<path class="st4" d="M85.4,28.5c-0.4-1.1-1.1-2-1.9-2.8c-2.7-2.6-6-3.6-8.9-4.5c-3.7-1.1-5.9-1.9-5.9-5.3c0-1.9,2.1-3.7,5-3.7
		c3.8,0,8.4,2.5,9.1,6.6v0.1h1.7v-8.4h-2.7c0,0-0.2,0.6-0.4,1.4c-1.1-0.8-3.2-2.6-7.3-2.6l0,0c-1.5-0.1-2.9,0.1-4.3,0.6
		c-1.2,0.4-2.3,1.1-3.3,1.9c-0.9,0.8-1.6,1.8-2.1,2.9c-0.5,1.1-0.7,2.4-0.7,3.6c0,1.3,0.3,2.7,0.8,3.9c2.1,4.3,6.2,5.5,9.8,6.6
		c3.5,1.1,6.5,2,6.5,5.5c0,2.4-3.1,4.3-6.7,4.3c-4.5,0-8.2-2.9-9.7-7.8v-0.1H63v10.8h2.8l0.8-3.2l0.1,0.2c0.3,0.4,0.7,0.8,1.1,1.1
		c0.4,0.3,0.8,0.6,1.3,0.9c1.7,1,3.6,1.5,5.5,1.5c4,0,8.9-1.7,10.7-5.7c0.6-1.3,0.9-2.7,0.9-4.1C86.2,31,85.9,29.7,85.4,28.5z"/>
	<path class="st4" d="M152.4,21.5c0-7.7-3.6-10.9-10.2-11.6c-0.6,0-1.3-0.1-2-0.1c-2.6,0-5.1,0.7-7.3,2.1c-1,0.6-1.8,1.4-2.5,2.3
		c-0.6,0.8-1,1.8-1,2.8c0,0.9,0.2,1.7,0.7,2.4c0.1,0.2,0.2,0.3,0.4,0.5c0.6,0.4,1.2,0.6,2,0.6c1,0.1,2.1-0.3,2.9-0.9
		c0.6-0.5,1-1.2,1-2c0-1.6-0.5-2.6-0.6-3.9c1-1.4,9.9-5.2,9.9,6.6V22c-0.7,0.3-1.5,0.6-2.3,0.9c-0.9,0.3-1.9,0.7-3,1
		c-2,0.6-4,1.4-6,2.3c-0.8,0.3-1.7,0.7-2.5,1.2c-0.8,0.4-1.5,1-2.1,1.6c-0.6,0.7-1.1,1.5-1.5,2.4c-0.4,1.1-0.6,2.3-0.6,3.5
		c-0.1,2,0.7,3.9,2.1,5.2c1.4,1.3,3.3,2,5.7,2c1.9,0,3.8-0.4,5.6-1.2h0c1.7-0.9,3.2-2.1,4.5-3.6l0.1,0v3.6c0,0.4,0.3,0.7,0.7,0.7h10
		v-2l-2.3-0.3c-1.2-0.1-1.7-0.4-1.7-1.3L152.4,21.5z M134.2,33.8c0-6.4,9.7-8.7,11.4-9.3v9.8C144.4,36.8,134.2,42.3,134.2,33.8
		L134.2,33.8z"/>
	<path class="st4" d="M213.5,34.5c-2.5,3.1-5.6,4.4-7.6,4.4c-1.6,0-3.2-0.4-4.6-1.1c-1.2-0.6-2.3-1.6-3-2.8
		c-0.9-1.5-1.5-3.1-1.8-4.7c-0.4-2-0.5-4-0.5-6v-0.7H216v-0.6c0-1.7-0.2-3.3-0.7-4.9c-0.4-1.5-1.1-2.9-2.1-4.1
		c-1.1-1.2-2.4-2.2-3.9-2.8c-1.9-0.7-3.9-1.1-5.9-1c-2.1,0-4.1,0.4-6,1.3c-1.7,0.9-3.2,2.1-4.5,3.5c-1.2,1.5-2.2,3.2-2.8,5.1
		c-0.6,1.9-0.9,3.9-0.9,5.9c0,2.1,0.3,4.3,0.9,6.3c0.6,1.9,1.5,3.7,2.7,5.2c1.2,1.5,2.8,2.7,4.6,3.5c2.1,0.9,4.4,1.3,6.6,1.3
		c2.6,0.1,5.1-0.7,7.3-2.2c1.6-1.1,3-2.5,4.2-4L213.5,34.5z M203.3,12c5.6,0,6.1,7.7,6.1,8.8h-13.5C196.4,13.6,201.2,12,203.3,12
		L203.3,12z"/>
	<path class="st4" d="M121.5,19.2c-1.8-5.6-7-9.3-12.8-9.3c-5.3,0-7.3,2.8-7.7,3.2l-0.2-0.1v-2.7H90.1v2l2.3,0.2
		c1.4,0.2,1.7,0.4,1.7,1.8V52c0,1.4-0.3,1.7-1.7,1.8l-2.3,0.3v2h14.7v-2l-2.3-0.3c-1.2-0.1-1.6-0.3-1.7-1.3V38.8h0.3
		c4.8,6,17.5,3.4,20.5-6.2c0.7-2,1-4.2,1-6.3C122.6,23.8,122.2,21.4,121.5,19.2z M100.8,18c2.4-6.8,14.9-8.8,14.9,8.1
		c0,16.1-12.8,14.5-14.9,7.6V18z"/>
</g>
<g class="st1">
	<path class="st4" d="M8.9,3.5v13.7H9c1.6-2.5,4.7-4.1,8.6-4.1c5.5,0,11.3,4.4,11.3,14.4c0,9.5-5.4,14.4-11.3,14.4
		c-4.4,0-7.4-1.5-8.9-4.2H8.5v3.5H1.4V3.5H8.9z M15.1,36.3c4.2,0,6.4-3.9,6.4-8.7s-2-8.8-6.4-8.8c-4.1,0-6.4,3.7-6.4,8.8
		S10.9,36.2,15.1,36.3L15.1,36.3z"/>
	<path class="st4" d="M51.3,13.4v7c-0.9-0.2-1.8-0.3-2.7-0.3c-5.4,0-7.4,3.9-7.4,8.8v12.3h-7.5V13.8h7.1v5.1h0.1
		c1.5-3.5,4.9-5.8,8.7-5.8C50.2,13.1,50.7,13.2,51.3,13.4z"/>
	<path class="st4" d="M78.7,20.9v14.5c0,2.2,0.3,4.7,0.9,5.8H72c-0.3-0.9-0.5-1.7-0.5-2.6c-2.1,2.2-5.3,3.4-9.2,3.4
		c-5.6,0-9.3-2.9-9.3-8.2c0-4,1.9-6.5,6.3-7.7c2.8-0.7,6.4-0.9,8.6-1.4c2.2-0.5,3.2-1.2,3.2-2.8c0-3.1-2.3-3.6-4.8-3.6
		c-3.1,0-4.7,1.3-5,4.1h-7.5c0.3-6,5.2-9.1,12.9-9.1C74.7,13.1,78.7,15.8,78.7,20.9z M65.1,36.9c4,0,6.1-2.2,6.1-6.2v-2.9
		c-0.7,0.6-2,1-4.5,1.3c-3.9,0.5-6.1,1.4-6.1,4.3C60.5,35.5,61.9,36.9,65.1,36.9z"/>
	<path class="st4" d="M110.1,24.1v17h-7.5V25.7c0-4.5-1.3-6.6-4.8-6.6c-4.6,0-5.8,3.1-5.8,7.9v14.2h-7.5V13.8h7.1v3.8h0.2
		c1.8-2.9,5-4.6,8.4-4.5C107,13.1,110.1,16.5,110.1,24.1z"/>
	<path class="st4" d="M142.4,3.5v37.7h-7.1v-3.5h-0.1c-1.6,2.8-4.5,4.2-8.3,4.2c-8.1,0-12.2-6.9-12.2-14.6c0-7.6,4.2-14.1,12.1-14.1
		c3.3,0,6.4,1.4,8.1,4.1h0.1V3.5H142.4z M128.7,36.3c4.3,0,6.4-3.3,6.4-8.8c0-5-1.9-8.6-6.5-8.6c-4.3,0-6.5,3.4-6.5,8.7
		C122.1,31.8,124.1,36.2,128.7,36.3L128.7,36.3z"/>
	<path class="st4" d="M173.9,23.5h-7.3c-0.5-3.1-2.4-4.7-5.5-4.7c-4.5,0-6.4,4.4-6.4,8.9s1.8,8.6,6.2,8.6c3.3,0,5.4-2,6-5.5h7.2
		c-1,7.2-5.9,11.2-13.1,11.2c-8.5,0-13.8-6.1-13.8-14c0-8.7,5.3-14.8,13.9-14.8C168.1,13.1,173.5,16.9,173.9,23.5z"/>
	<path class="st4" d="M185.8,3.5v14.2h0.2c1.7-2.8,4.7-4.5,8-4.5c6.9,0,9.9,3.4,9.9,11v17h-7.5V25.6c0-4.4-1.3-6.6-4.8-6.6
		c-4.6,0-5.8,3-5.8,7.8v14.3h-7.5V3.5H185.8z"/>
	<path class="st4" d="M234.1,20.9v14.5c0,2.2,0.3,4.7,0.9,5.8h-7.6c-0.3-0.9-0.5-1.7-0.5-2.6c-2.1,2.2-5.3,3.4-9.2,3.4
		c-5.6,0-9.3-2.9-9.3-8.2c0-4,1.9-6.5,6.3-7.7c2.8-0.7,6.4-0.9,8.7-1.4c2.2-0.5,3.2-1.2,3.2-2.8c0-3.1-2.3-3.6-4.8-3.6
		c-3.1,0-4.8,1.3-5,4.1h-7.5c0.3-6,5.2-9.1,12.9-9.1C230.1,13.1,234.1,15.8,234.1,20.9z M220.5,36.9c4,0,6.1-2.2,6.1-6.2v-2.9
		c-0.7,0.6-2,1-4.5,1.3c-3.9,0.5-6.1,1.4-6.1,4.3C215.9,35.5,217.2,36.9,220.5,36.9L220.5,36.9z"/>
	<path class="st4" d="M265.5,24.1v17H258V25.7c0-4.5-1.3-6.6-4.8-6.6c-4.6,0-5.8,3.1-5.8,7.9v14.2h-7.5V13.8h7.1v3.8h0.2
		c1.8-2.9,5-4.6,8.4-4.5C262.5,13.1,265.5,16.5,265.5,24.1z"/>
	<path class="st4" d="M296.8,24.1v17h-7.5V25.7c0-4.5-1.3-6.6-4.8-6.6c-4.6,0-5.8,3.1-5.8,7.9v14.2h-7.5V13.8h7.1v3.8h0.2
		c1.8-2.9,5-4.6,8.4-4.5C293.8,13.1,296.8,16.5,296.8,24.1z"/>
	<path class="st4" d="M327.7,23.1c0.4,1.6,0.6,3.2,0.6,4.8l-0.1,1.4h-19.7c0.2,4.7,2.5,6.9,6.6,6.9c2.8,0,5.4-1.6,6-3.5h6.6
		c-2.1,6.2-6.2,9.2-12.8,9.2c-8.7,0-13.9-6-13.9-14.4c0-8.2,5.7-14.4,13.9-14.4C322,13.1,326.3,17.5,327.7,23.1z M320.8,24.6
		c-0.7-4.1-2.5-5.8-6-5.8s-5.9,2.2-6.2,5.8H320.8z"/>
	<path class="st4" d="M340.4,3.5v37.7H333V3.5H340.4z"/>
	<path class="st4" d="M355,14.3v8.1h-8.3v-8.1H355z M355,33v8.1h-8.3V33H355z"/>
</g>
</svg>
