<svg version="1.1" id="Layer_1" xmlns="http://www.w3.org/2000/svg" xmlns:xlink="http://www.w3.org/1999/xlink"  baseProfile="full" x="0px" y="0px"
	 viewBox="0 301 1224 190.1" enable-background="new 0 301 1224 190.1" xml:space="preserve">
<g>
	<path fill="#FF0000" d="M99.2,361.9c10.3-16.7,24.2-25.3,44.1-25.3c30.1,0,50.5,22.7,50.5,54.6v95.3h-38.7v-89.7
		c0-15.7-9-26.8-25.3-26.8c-17,0-29.6,13.7-29.6,33.5v83H61.6v-146h37.9C99.2,340.5,99.2,358,99.2,361.9z M972.5,361.9
		c10.3-16.7,24.2-25.3,44.1-25.3c30.1,0,50.5,22.7,50.5,54.6v95.3h-38.7v-89.7c0-15.7-9-26.8-25.3-26.8c-17,0-29.6,13.7-29.6,33.5
		v83h-38.7v-146h37.9C972.5,340.5,972.5,358,972.5,361.9z M289.9,413.4c0-43.3,29.1-76.8,73.7-76.8c43.5,0,69.6,31.2,69.1,77.3
		c0,3.9,0,7-0.3,10.8H328c2.8,22.4,13.4,36.3,35.3,36.3c12.1,0,23.4-6.2,29.1-17.8h37.4c-5.4,26-28.9,47.9-66.5,47.9
		C315.1,491,289.9,456.9,289.9,413.4z M328.8,397.7h65.5c-1-18.6-13.1-31.4-30.7-31.4C343.2,366.5,331.6,380.2,328.8,397.7z
		 M736.5,365.5l0.8-1.8c8.8-16.5,18.8-25,35.8-25c4.4,0,7,0.3,9,1v34h-0.8c-25.3-2.6-43.5,10.8-43.5,41.5v71.4h-38.7V340.5h37.4
		V365.5z M875.6,471.1c-5.9,9.3-16.7,18.8-41.5,18.8c-29.9,0-51.3-14.9-51.3-44.1c0-32.2,25.5-43.3,58-47.7
		c24.2-3.3,34.3-5.4,34.3-16.5c0-10.6-7.2-17.3-23.4-17.3c-18.3,0-26,6.4-27.1,20.6h-34.5c1-25.5,19.3-48.2,61.8-48.2
		c43.8,0,61.8,19.6,61.8,53.9v74.5c0,11.1,1.8,19.1,5.2,21.6h-38.7C878.2,483.7,876.1,476.3,875.6,471.1z M876.1,435v-21.9
		c-7,3.9-16.2,6.2-26,8.5c-20.1,4.6-28.6,9-28.6,22.7s7.5,18.6,21.1,18.6C864.8,462.9,876.1,449.2,876.1,435z M0,301v185.5h38.7V301
		H0z M262.1,443.5v-77h25v-26h-25V301h-38.4v39.4h-20.1v26h20.1v85.3c0,27.6,21.4,35,40.2,35c15.5,0,24.2-0.5,24.2-0.5v-28.6
		c0,0-6.4,0.3-11.3,0.3C268,458,262.1,454.4,262.1,443.5z M623.3,336.3c-18.6,0.3-33.5,7.7-41.5,20.1V301h-38.7v185.5h37.4v-15.2
		c8.5,13.7,23.2,19.3,40.5,19.3c40.2,0,63.9-28.9,63.9-76.8S660.2,336.1,623.3,336.3z M614.3,459.3c-22.7,0-33.2-17.8-33.2-44.6
		c0-27.1,8.8-46.6,33.2-46.6c21.6,0,31.2,18.8,31.2,45.9C645.8,441.7,634.4,459.3,614.3,459.3z M485.2,365.5l0.8-1.8
		c8.8-16.5,18.8-25,35.8-25c4.4,0,7,0.3,9,1v34H530c-25.3-2.6-43.5,10.8-43.5,41.5v71.4h-38.7V340.5h37.4L485.2,365.5L485.2,365.5z
		 M1081.2,413.7c0,48.2,24.5,76.8,64.4,76.8c17.3,0,32.5-5.4,41-19.3v15.2h37.4V301h-38.7v55.4c-8-12.4-23.2-19.8-42-20.1
		C1106.8,336.1,1081.2,366,1081.2,413.7z M1120.4,413.7c0-27.1,10-45.9,31.7-45.9c24.5,0,33.8,19.6,33.8,46.6
		c0,26.8-11.1,45.6-33.8,45.6C1132.5,460.3,1120.4,441.7,1120.4,413.7z"/>
</g>
</svg>
